<svg xmlns="http://www.w3.org/2000/svg" xmlns:xlink="http://www.w3.org/1999/xlink" id="Layer_1" x="0" y="0" enable-background="new 0 0 180 190.5" version="1.1" viewBox="0 0 180 190.5" xml:space="preserve"><g><defs><path id="SVGID_1_" d="M25,27.4h123.6c2.7,5.2,8.2,8.8,14.5,8.8c9,0,16.3-7.3,16.3-16.3S172.1,3.6,163,3.6 c-6.8,0-12.7,4.2-15.1,10.2H25c-11.9,0-21.3,9.1-21.3,20.6V166c0,11.7,9.8,21.7,21.3,21.7h131.5c11.6,0,21-9.7,21-21.7v-78 c0-11.7-9.4-21.3-21-21.3h-78c-11.9,0-22,9.8-22,21.3v24.5c0,11.4,9.9,20.6,22,20.6h27.2c2.4,6,8.3,10.2,15.1,10.2 c9,0,16.3-7.3,16.3-16.3c0-9-7.3-16.3-16.3-16.3c-6.3,0-11.8,3.6-14.5,8.8H78.5c-4,0-8.3-2.7-8.3-7V87.9c0-4,4-7.7,8.3-7.7h78 c4.1,0,7.4,3.4,7.4,7.7v78c0,4.3-3.4,8-7.4,8H25c-4.1,0-7.7-3.8-7.7-8V34.4C17.3,30.5,20.6,27.4,25,27.4z M163,12.1 c4.3,0,7.8,3.5,7.8,7.8c0,4.3-3.5,7.8-7.8,7.8c-4.3,0-7.8-3.5-7.8-7.8C155.2,15.6,158.7,12.1,163,12.1z M120.9,119.2 c4.3,0,7.8,3.5,7.8,7.8c0,4.3-3.5,7.8-7.8,7.8c-4.3,0-7.8-3.5-7.8-7.8C113.1,122.6,116.6,119.2,120.9,119.2z"/></defs><clipPath id="SVGID_2_"><use overflow="visible" xlink:href="#SVGID_1_"/></clipPath><rect width="26.1" height="27.8" x="-1.6" y="7.4" fill="#3EB8BC" clip-path="url(#SVGID_2_)"/><rect width="26.1" height="27.8" x="-1.6" y="165.4" fill="#0A968E" clip-path="url(#SVGID_2_)"/><rect width="26.1" height="27.8" x="156" y="165.4" fill="#EB5B28" clip-path="url(#SVGID_2_)"/><rect width="26.1" height="27.8" x="156" y="60.7" fill="#C22C2E" clip-path="url(#SVGID_2_)"/><rect width="26.1" height="27.8" x="52.9" y="60.7" fill="#CA4C30" clip-path="url(#SVGID_2_)"/><rect width="26.1" height="27.8" x="52.9" y="111.9" fill="#E94E1B" clip-path="url(#SVGID_2_)"/><linearGradient id="SVGID_3_" x1="11.164" x2="11.164" y1="164.158" y2="38.45" gradientUnits="userSpaceOnUse"><stop offset="0" stop-color="#0A968E"/><stop offset="1" stop-color="#3EB8BC"/></linearGradient><rect width="25.6" height="131.3" x="-1.6" y="34.7" fill="url(#SVGID_3_)" clip-path="url(#SVGID_2_)"/><linearGradient id="SVGID_4_" x1="23.944" x2="156.533" y1="179.598" y2="179.598" gradientUnits="userSpaceOnUse"><stop offset="0" stop-color="#0A968E"/><stop offset="1" stop-color="#EB5B28"/></linearGradient><rect width="132.6" height="27.3" x="23.9" y="166" fill="url(#SVGID_4_)" clip-path="url(#SVGID_2_)"/><linearGradient id="SVGID_5_" x1="169.313" x2="169.313" y1="88.253" y2="165.195" gradientUnits="userSpaceOnUse"><stop offset="0" stop-color="#C22C2E"/><stop offset="1" stop-color="#EB5B28"/></linearGradient><rect width="25.6" height="78" x="156.5" y="87.9" fill="url(#SVGID_5_)" clip-path="url(#SVGID_2_)"/><linearGradient id="SVGID_6_" x1="155.382" x2="79.945" y1="74.31" y2="74.31" gradientUnits="userSpaceOnUse"><stop offset="0" stop-color="#C22C2E"/><stop offset="1" stop-color="#CA4C30"/></linearGradient><rect width="78" height="27.3" x="78.5" y="60.7" fill="url(#SVGID_6_)" clip-path="url(#SVGID_2_)"/><linearGradient id="SVGID_7_" x1="65.728" x2="65.728" y1="88.501" y2="111.635" gradientUnits="userSpaceOnUse"><stop offset="0" stop-color="#CA4C30"/><stop offset="1" stop-color="#E94E1B"/></linearGradient><rect width="25.6" height="24.5" x="52.9" y="87.9" fill="url(#SVGID_7_)" clip-path="url(#SVGID_2_)"/><linearGradient id="SVGID_8_" x1="182.094" x2="26.598" y1="21.018" y2="21.018" gradientUnits="userSpaceOnUse"><stop offset="0" stop-color="#0D77BA"/><stop offset="1" stop-color="#3EB8BC"/></linearGradient><polygon fill="url(#SVGID_8_)" points="143.6 1.7 143.6 7.4 23.9 7.4 23.9 34.7 143.6 34.7 143.6 40.3 182.1 40.3 182.1 1.7" clip-path="url(#SVGID_2_)"/><linearGradient id="SVGID_9_" x1="78.509" x2="140.246" y1="126.954" y2="126.954" gradientUnits="userSpaceOnUse"><stop offset="0" stop-color="#E94E1B"/><stop offset="1" stop-color="#F8AE3B"/></linearGradient><polygon fill="url(#SVGID_9_)" points="101.9 107.8 101.9 112.5 78.5 112.5 78.5 139.7 101.9 139.7 101.9 146.1 140.2 146.1 140.2 107.8" clip-path="url(#SVGID_2_)"/></g></svg>